# xmcd
#
# Track frame offsets:
#	150
#	12517
#	25747
#
# Disc length: 559 seconds
#
# Revision: 0
# Processed by: cddbd v1.5.2PL0 Copyright (c) Steve Scherf et al.
# Submitted via: audiograbber 1.83.01
#
DISCID=19022d03
DTITLE=Geraldine Olivier - Nimm dir wieder einmal Zeit
DYEAR=2004
DGENRE=Volksmusik
TTITLE0=Nimm dir wieder einmal Zeit
TTITLE1=Rosen blüh'n im Schnee
TTITLE2=Nit Dir sofort
EXTD=<http://www.hit-radio24.de> \n
EXTT0=
EXTT1=
EXTT2=
PLAYORDER=
